<svg width="58" height="58" viewBox="0 0 58 58" fill="none" xmlns="http://www.w3.org/2000/svg">
<path d="M40.6216 31.4792H31.6233V40.3994C31.6233 41.8357 30.4488 43 29 43C27.5512 43 26.3767 41.8357 26.3767 40.3994V31.4792H17.3784C16.027 31.3405 15 30.2115 15 28.8646C15 27.5178 16.027 26.3888 17.3784 26.2501H26.3485V17.3578C26.4884 16.0181 27.6272 15 28.9859 15C30.3446 15 31.4834 16.0181 31.6233 17.3578V26.2501H40.6216C41.973 26.3888 43 27.5178 43 28.8646C43 30.2115 41.973 31.3405 40.6216 31.4792Z" fill="#243455"/>
</svg>
